<svg
  width="50"
  height="20"
  viewBox="0 0 50 20"
  fill="none"
  xmlns="http://www.w3.org/2000/svg"
>
  <path
    d="M49.9999 1.46499C49.9999 1.99346 49.6603 2.35865 49.1939 2.68839C44.4781 6.02167 39.7646 9.3577 35.0535 12.6965C31.6769 15.0859 28.3024 17.4761 24.93 19.8673C24.6933 20.0356 24.5719 20.0527 24.322 19.8673C16.4713 14.1222 8.61413 8.37987 0.75054 2.64029C-0.181303 1.95992 -0.249059 1.1112 0.567511 0.467535C0.908617 0.201068 1.37676 0.0368124 1.8787 0.00748937C2.38063 -0.0218336 2.8795 0.0859288 3.27592 0.30931C3.43519 0.402232 3.58542 0.502888 3.72556 0.610572C10.5684 5.70923 17.4081 10.8108 24.2445 15.9154C24.5648 16.1546 24.71 16.1287 25.0118 15.9116C32.1257 10.7817 39.2463 5.65691 46.3737 0.537155C47.3117 -0.137519 48.4856 -0.178657 49.3848 0.425132C49.5815 0.558607 49.7376 0.71988 49.8435 0.898827C49.9493 1.07777 50.0026 1.27053 49.9999 1.46499Z"
    fill="#FF5600"
  />
</svg>
