<svg width="32" height="30" viewBox="0 0 32 30" fill="none" xmlns="http://www.w3.org/2000/svg">
<path d="M22.0781 13.7424L19.4554 10.9481C18.7735 10.2214 18.0836 9.50032 17.4109 8.76547C17.0377 8.35658 16.9733 7.86591 17.1426 7.35105C17.1934 7.18039 17.2925 7.0281 17.4281 6.91261C17.5636 6.79712 17.7297 6.72337 17.9062 6.70028C18.4464 6.61504 18.9256 6.74289 19.3137 7.161C20.1384 8.04444 20.9712 8.91981 21.8005 9.79979C23.1059 11.182 24.4112 12.5641 25.7166 13.9463C26.3893 14.6593 26.3939 15.3365 25.727 16.046C23.6207 18.2852 21.5152 20.525 19.4105 22.7657C19.2691 22.9308 19.0956 23.0655 18.9006 23.1615C18.7055 23.2575 18.493 23.3129 18.2759 23.3243C17.7887 23.3451 17.3937 23.1896 17.1691 22.7369C17.0528 22.5237 17.0028 22.2807 17.0256 22.0389C17.0484 21.7972 17.1428 21.5678 17.2969 21.3801C17.51 21.1013 17.7645 20.8548 18.0053 20.598C19.2669 19.2558 20.5289 17.9143 21.7913 16.5736C21.8684 16.4918 21.9375 16.402 22.0216 16.3075C21.8627 16.2257 21.721 16.2614 21.5862 16.2614C13.0629 16.2614 10.8848 16.2614 2.36718 16.2614C1.8097 16.2614 1.33746 16.1221 1.05642 15.6141C0.636008 14.8505 1.05643 13.9728 1.90301 13.7862C2.09886 13.7494 2.29817 13.7344 2.49733 13.7413H22.0861L22.0781 13.7424Z" fill="#FF8001"/>
<path d="M31.2281 15.0092C31.2281 19.492 31.2281 23.9745 31.2281 28.4566C31.2281 28.8873 31.1878 29.3066 30.8629 29.6314C30.7428 29.7527 30.599 29.848 30.4405 29.9114C30.282 29.9748 30.1121 30.0049 29.9415 30C27.1956 30 24.4508 30 21.7049 30C20.9505 30 20.3953 29.4736 20.3861 28.7791C20.3769 28.05 20.9263 27.5121 21.7268 27.5029C23.7574 27.4913 25.7869 27.5029 27.8176 27.5029C28.0399 27.5029 28.2633 27.4948 28.4856 27.5029C28.6699 27.5121 28.7448 27.4384 28.7229 27.2575C28.7194 27.1988 28.7194 27.14 28.7229 27.0813C28.7229 19.0325 28.7256 10.9832 28.7309 2.93363C28.7309 2.59845 28.6561 2.5017 28.3117 2.50516C26.1878 2.52243 24.0638 2.51552 21.9399 2.51207C21.5759 2.51207 21.2142 2.5017 20.9033 2.25406C20.6938 2.09912 20.5377 1.88277 20.4568 1.63507C20.3759 1.38738 20.3741 1.12063 20.4517 0.871892C20.5297 0.623207 20.6848 0.405789 20.8946 0.251107C21.1044 0.0964258 21.3579 0.0125058 21.6185 0.0114904C22.2163 -0.00117946 22.8153 0.0114904 23.4131 0.0114904H29.7146C30.7766 0.0114904 31.2246 0.461847 31.2258 1.53648C31.2258 3.62433 31.2258 5.71294 31.2258 7.80232L31.2281 15.0092Z" fill="#FF8001"/>
</svg>
