<svg width="41" height="42" viewBox="0 0 41 42" fill="none" xmlns="http://www.w3.org/2000/svg">
<path d="M21.3999 39.9927C20.8823 40.442 20.2573 40.6174 19.5591 40.3356C18.843 40.0452 18.5086 39.4754 18.4652 38.7183C18.4618 38.6623 18.4639 38.6057 18.4642 38.5494L18.4605 3.42068C18.4605 2.49329 18.9023 1.84739 19.7059 1.59524C20.6916 1.2844 21.7469 1.94258 21.907 2.96858C21.9327 3.13522 21.9454 3.3036 21.9452 3.4722C21.9452 8.64395 21.9414 13.8154 21.9339 18.9864C21.9332 19.2 21.9773 19.2631 22.2038 19.2625C27.3999 19.2527 32.5951 19.2474 37.7894 19.2468C38.7092 19.2461 39.3654 19.7118 39.6114 20.5338C39.899 21.4943 39.2272 22.5523 38.235 22.695C38.06 22.7197 37.8835 22.732 37.7068 22.7318C32.5434 22.7316 27.3805 22.7278 22.2178 22.7206C21.9834 22.7202 21.9319 22.7758 21.9319 23.0065C21.9428 28.1873 21.9478 33.3668 21.9469 38.5449C21.9476 39.0834 21.8022 39.5583 21.3999 39.9927Z" fill="#10788E"/>
<path d="M1.17551 22.1573C0.749001 21.6871 0.589316 21.073 0.841125 20.3933C1.07656 19.7566 1.54708 19.3748 2.23119 19.283C2.39036 19.262 2.55072 19.2514 2.71127 19.2513C6.7716 19.2508 10.832 19.2496 14.8926 19.2475C15.1031 19.2472 15.1782 19.2868 15.1751 19.5184C15.1605 20.5151 15.1618 21.5107 15.1738 22.5094C15.1755 22.694 15.1233 22.7319 14.9462 22.7322C10.8294 22.7268 6.71303 22.726 2.59696 22.7299C2.07594 22.7295 1.61395 22.5876 1.17551 22.1573Z" fill="#10788E"/>
</svg>
